<svg width="24" height="16" xmlns="http://www.w3.org/2000/svg" xmlns:xlink="http://www.w3.org/1999/xlink" xml:space="preserve"><g transform="translate(-2620 -505)"><path d="M2917.5 632C2917.5 614.051 2932.05 599.5 2950 599.5 2967.95 599.5 2982.5 614.051 2982.5 632 2982.5 649.949 2967.95 664.5 2950 664.5 2932.05 664.5 2917.5 649.949 2917.5 632Z"  stroke-width="20.625" stroke-miterlimit="8" fill="none" fill-rule="evenodd"/><path d="M2630.5 715C2630.5 697.051 2645.05 682.5 2663 682.5 2680.95 682.5 2695.5 697.051 2695.5 715 2695.5 732.949 2680.95 747.5 2663 747.5 2645.05 747.5 2630.5 732.949 2630.5 715Z"  stroke-width="20.625" stroke-miterlimit="8" fill="none" fill-rule="evenodd"/><path d="M2630.5 548C2630.5 530.051 2645.05 515.5 2663 515.5 2680.95 515.5 2695.5 530.051 2695.5 548 2695.5 565.949 2680.95 580.5 2663 580.5 2645.05 580.5 2630.5 565.949 2630.5 548Z"  stroke-width="20.625" stroke-miterlimit="8" fill="none" fill-rule="evenodd"/><path d="M2671.5 631.5C2671.5 567.435 2726.79 515.5 2795 515.5 2863.21 515.5 2918.5 567.435 2918.5 631.5 2918.5 695.565 2863.21 747.5 2795 747.5 2726.79 747.5 2671.5 695.565 2671.5 631.5Z"  stroke-width="20.625" stroke-miterlimit="8" fill="none" fill-rule="evenodd"/><path d="M2706 633.5C2706 586.28 2745.62 548 2794.5 548 2843.38 548 2883 586.28 2883 633.5 2883 680.72 2843.38 719 2794.5 719 2745.62 719 2706 680.72 2706 633.5Z"  stroke-width="13.75" stroke-miterlimit="8" fill="none" fill-rule="evenodd"/></g></svg>