<svg width="330" height="330" xmlns="http://www.w3.org/2000/svg" xmlns:xlink="http://www.w3.org/1999/xlink" xml:space="preserve" overflow="hidden"><defs><clipPath id="clip0"><rect x="2475" y="1127" width="331" height="121"/></clipPath><clipPath id="clip1"><rect x="2475" y="1127" width="331" height="121"/></clipPath><clipPath id="clip2"><rect x="2476" y="1292" width="331" height="93"/></clipPath><clipPath id="clip3"><rect x="2476" y="1292" width="331" height="93"/></clipPath><clipPath id="clip4"><rect x="2476" y="1426" width="331" height="32"/></clipPath><clipPath id="clip5"><rect x="2476" y="1426" width="331" height="32"/></clipPath></defs><g transform="translate(-2476 -1127)"><g clip-path="url(#clip0)"><g clip-path="url(#clip1)"><path d="M37.8331 44.6875 58.4581 44.6875 58.4581 147.812 37.8331 147.812Z" transform="matrix(-1.83852e-16 -1.00084 1 -1.83697e-16 2476 1457.28)"/><path d="M127.208 65.3125C131.005 65.3125 134.083 68.3904 134.083 72.1875L134.083 120.312C134.083 124.11 131.005 127.188 127.208 127.188L106.583 127.188C102.786 127.188 99.7081 124.11 99.7081 120.312L99.7081 72.1875C99.7081 68.3904 102.786 65.3125 106.583 65.3125L127.208 65.3125M127.208 44.6875 106.583 44.6875C91.3952 44.6875 79.0831 56.9996 79.0831 72.1875L79.0831 120.312C79.0831 135.5 91.3952 147.812 106.583 147.812L127.208 147.812C142.396 147.812 154.708 135.5 154.708 120.312L154.708 72.1875C154.708 56.9996 142.396 44.6875 127.208 44.6875Z" transform="matrix(-1.83852e-16 -1.00084 1 -1.83697e-16 2476 1457.28)"/><path d="M175.333 44.6875 195.958 44.6875 195.958 147.812 175.333 147.812Z" transform="matrix(-1.83852e-16 -1.00084 1 -1.83697e-16 2476 1457.28)"/><path d="M264.708 65.3125C268.505 65.3125 271.583 68.3904 271.583 72.1875L271.583 120.312C271.583 124.11 268.505 127.188 264.708 127.188L244.083 127.188C240.286 127.188 237.208 124.11 237.208 120.312L237.208 72.1875C237.208 68.3904 240.286 65.3125 244.083 65.3125L264.708 65.3125M264.708 44.6875 244.083 44.6875C228.895 44.6875 216.583 56.9996 216.583 72.1875L216.583 120.312C216.583 135.5 228.895 147.812 244.083 147.812L264.708 147.812C279.896 147.812 292.208 135.5 292.208 120.312L292.208 72.1875C292.208 56.9996 279.896 44.6875 264.708 44.6875Z" transform="matrix(-1.83852e-16 -1.00084 1 -1.83697e-16 2476 1457.28)"/><path d="M37.8331 182.188 58.4581 182.188 58.4581 285.312 37.8331 285.312Z" transform="matrix(-1.83852e-16 -1.00084 1 -1.83697e-16 2476 1457.28)"/><path d="M127.208 202.812C131.005 202.812 134.083 205.89 134.083 209.688L134.083 257.812C134.083 261.61 131.005 264.688 127.208 264.688L106.583 264.688C102.786 264.688 99.7081 261.61 99.7081 257.812L99.7081 209.688C99.7081 205.89 102.786 202.812 106.583 202.812L127.208 202.812M127.208 182.188 106.583 182.188C91.3952 182.188 79.0831 194.5 79.0831 209.688L79.0831 257.812C79.0831 273 91.3952 285.312 106.583 285.312L127.208 285.312C142.396 285.312 154.708 273 154.708 257.812L154.708 209.688C154.708 194.5 142.396 182.188 127.208 182.188Z" transform="matrix(-1.83852e-16 -1.00084 1 -1.83697e-16 2476 1457.28)"/><path d="M175.333 182.188 195.958 182.188 195.958 285.312 175.333 285.312Z" transform="matrix(-1.83852e-16 -1.00084 1 -1.83697e-16 2476 1457.28)"/><path d="M264.708 202.812C268.505 202.812 271.583 205.89 271.583 209.688L271.583 257.812C271.583 261.61 268.505 264.688 264.708 264.688L244.083 264.688C240.286 264.688 237.208 261.61 237.208 257.812L237.208 209.688C237.208 205.89 240.286 202.812 244.083 202.812L264.708 202.812M264.708 182.188 244.083 182.188C228.895 182.188 216.583 194.5 216.583 209.688L216.583 257.812C216.583 273 228.895 285.312 244.083 285.312L264.708 285.312C279.896 285.312 292.208 273 292.208 257.812L292.208 209.688C292.208 194.5 279.896 182.188 264.708 182.188Z" transform="matrix(-1.83852e-16 -1.00084 1 -1.83697e-16 2476 1457.28)"/></g></g><g clip-path="url(#clip2)"><g clip-path="url(#clip3)"><g><path d="M37.8006 44.6491 58.4079 44.6491 58.4079 147.685 37.8006 147.685Z" transform="matrix(-1.83697e-16 -1 1.00086 -1.83855e-16 2476 1455.3)"/><path d="M127.099 65.2564C130.893 65.2564 133.968 68.3317 133.968 72.1255L133.968 120.209C133.968 124.003 130.893 127.078 127.099 127.078L106.492 127.078C102.698 127.078 99.6224 124.003 99.6224 120.209L99.6224 72.1255C99.6224 68.3317 102.698 65.2564 106.492 65.2564L127.099 65.2564M127.099 44.6491 106.492 44.6491C91.3167 44.6491 79.0152 56.9506 79.0152 72.1255L79.0152 120.209C79.0152 135.384 91.3167 147.685 106.492 147.685L127.099 147.685C142.274 147.685 154.575 135.384 154.575 120.209L154.575 72.1255C154.575 56.9506 142.274 44.6491 127.099 44.6491Z" transform="matrix(-1.83697e-16 -1 1.00086 -1.83855e-16 2476 1455.3)"/><path d="M175.182 44.6491 195.79 44.6491 195.79 147.685 175.182 147.685Z" transform="matrix(-1.83697e-16 -1 1.00086 -1.83855e-16 2476 1455.3)"/><path d="M264.481 65.2564C268.274 65.2564 271.35 68.3317 271.35 72.1255L271.35 120.209C271.35 124.003 268.274 127.078 264.481 127.078L243.873 127.078C240.08 127.078 237.004 124.003 237.004 120.209L237.004 72.1255C237.004 68.3317 240.08 65.2564 243.873 65.2564L264.481 65.2564M264.481 44.6491 243.873 44.6491C228.699 44.6491 216.397 56.9506 216.397 72.1255L216.397 120.209C216.397 135.384 228.699 147.685 243.873 147.685L264.481 147.685C279.655 147.685 291.957 135.384 291.957 120.209L291.957 72.1255C291.957 56.9506 279.655 44.6491 264.481 44.6491Z" transform="matrix(-1.83697e-16 -1 1.00086 -1.83855e-16 2476 1455.3)"/><path d="M37.8006 182.031 58.4079 182.031 58.4079 285.067 37.8006 285.067Z" transform="matrix(-1.83697e-16 -1 1.00086 -1.83855e-16 2476 1455.3)"/><path d="M127.099 202.638C130.893 202.638 133.968 205.714 133.968 209.507L133.968 257.591C133.968 261.385 130.893 264.46 127.099 264.46L106.492 264.46C102.698 264.46 99.6224 261.385 99.6224 257.591L99.6224 209.507C99.6224 205.714 102.698 202.638 106.492 202.638L127.099 202.638M127.099 182.031 106.492 182.031C91.3167 182.031 79.0152 194.332 79.0152 209.507L79.0152 257.591C79.0152 272.766 91.3167 285.067 106.492 285.067L127.099 285.067C142.274 285.067 154.575 272.766 154.575 257.591L154.575 209.507C154.575 194.332 142.274 182.031 127.099 182.031Z" transform="matrix(-1.83697e-16 -1 1.00086 -1.83855e-16 2476 1455.3)"/><path d="M175.182 182.031 195.79 182.031 195.79 285.067 175.182 285.067Z" transform="matrix(-1.83697e-16 -1 1.00086 -1.83855e-16 2476 1455.3)"/><path d="M264.481 202.638C268.274 202.638 271.35 205.714 271.35 209.507L271.35 257.591C271.35 261.385 268.274 264.46 264.481 264.46L243.873 264.46C240.08 264.46 237.004 261.385 237.004 257.591L237.004 209.507C237.004 205.714 240.08 202.638 243.873 202.638L264.481 202.638M264.481 182.031 243.873 182.031C228.699 182.031 216.397 194.332 216.397 209.507L216.397 257.591C216.397 272.766 228.699 285.067 243.873 285.067L264.481 285.067C279.655 285.067 291.957 272.766 291.957 257.591L291.957 209.507C291.957 194.332 279.655 182.031 264.481 182.031Z" transform="matrix(-1.83697e-16 -1 1.00086 -1.83855e-16 2476 1455.3)"/></g></g></g><g clip-path="url(#clip4)"><g clip-path="url(#clip5)"><g><path d="M37.4337 44.2157 57.8409 44.2157 57.8409 146.252 37.4337 146.252Z" transform="matrix(6.12323e-17 1 -1.01067 6.18858e-17 2806 1130.48)"/><path d="M125.865 64.6229C129.622 64.6229 132.667 67.6683 132.667 71.4253L132.667 119.042C132.667 122.799 129.622 125.845 125.865 125.845L105.458 125.845C101.701 125.845 98.6554 122.799 98.6554 119.042L98.6554 71.4253C98.6554 67.6683 101.701 64.6229 105.458 64.6229L125.865 64.6229M125.865 44.2157 105.458 44.2157C90.4302 44.2157 78.2481 56.3978 78.2481 71.4253L78.2481 119.042C78.2481 134.07 90.4302 146.252 105.458 146.252L125.865 146.252C140.893 146.252 153.075 134.07 153.075 119.042L153.075 71.4253C153.075 56.3978 140.893 44.2157 125.865 44.2157Z" transform="matrix(6.12323e-17 1 -1.01067 6.18858e-17 2806 1130.48)"/><path d="M173.482 44.2157 193.889 44.2157 193.889 146.252 173.482 146.252Z" transform="matrix(6.12323e-17 1 -1.01067 6.18858e-17 2806 1130.48)"/><path d="M261.913 64.6229C265.67 64.6229 268.716 67.6683 268.716 71.4253L268.716 119.042C268.716 122.799 265.67 125.845 261.913 125.845L241.506 125.845C237.749 125.845 234.704 122.799 234.704 119.042L234.704 71.4253C234.704 67.6683 237.749 64.6229 241.506 64.6229L261.913 64.6229M261.913 44.2157 241.506 44.2157C226.478 44.2157 214.296 56.3978 214.296 71.4253L214.296 119.042C214.296 134.07 226.478 146.252 241.506 146.252L261.913 146.252C276.941 146.252 289.123 134.07 289.123 119.042L289.123 71.4253C289.123 56.3978 276.941 44.2157 261.913 44.2157Z" transform="matrix(6.12323e-17 1 -1.01067 6.18858e-17 2806 1130.48)"/><path d="M37.4337 180.264 57.8409 180.264 57.8409 282.3 37.4337 282.3Z" transform="matrix(6.12323e-17 1 -1.01067 6.18858e-17 2806 1130.48)"/><path d="M125.865 200.671C129.622 200.671 132.667 203.717 132.667 207.474L132.667 255.09C132.667 258.847 129.622 261.893 125.865 261.893L105.458 261.893C101.701 261.893 98.6554 258.847 98.6554 255.09L98.6554 207.474C98.6554 203.717 101.701 200.671 105.458 200.671L125.865 200.671M125.865 180.264 105.458 180.264C90.4302 180.264 78.2481 192.446 78.2481 207.474L78.2481 255.09C78.2481 270.118 90.4302 282.3 105.458 282.3L125.865 282.3C140.893 282.3 153.075 270.118 153.075 255.09L153.075 207.474C153.075 192.446 140.893 180.264 125.865 180.264Z" transform="matrix(6.12323e-17 1 -1.01067 6.18858e-17 2806 1130.48)"/><path d="M173.482 180.264 193.889 180.264 193.889 282.3 173.482 282.3Z" transform="matrix(6.12323e-17 1 -1.01067 6.18858e-17 2806 1130.48)"/><path d="M261.913 200.671C265.67 200.671 268.716 203.717 268.716 207.474L268.716 255.09C268.716 258.847 265.67 261.893 261.913 261.893L241.506 261.893C237.749 261.893 234.704 258.847 234.704 255.09L234.704 207.474C234.704 203.717 237.749 200.671 241.506 200.671L261.913 200.671M261.913 180.264 241.506 180.264C226.478 180.264 214.296 192.446 214.296 207.474L214.296 255.09C214.296 270.118 226.478 282.3 241.506 282.3L261.913 282.3C276.941 282.3 289.123 270.118 289.123 255.09L289.123 207.474C289.123 192.446 276.941 180.264 261.913 180.264Z" transform="matrix(6.12323e-17 1 -1.01067 6.18858e-17 2806 1130.48)"/></g></g></g></g></svg>