<svg width="228" height="297" xmlns="http://www.w3.org/2000/svg" xmlns:xlink="http://www.w3.org/1999/xlink" xml:space="preserve" overflow="hidden"><defs><clipPath id="clip0"><rect x="3889" y="866" width="228" height="297"/></clipPath><clipPath id="clip1"><path d="M3962.97 901.426 4089.11 936.33 4042.65 1104.2 3916.52 1069.3Z" fill-rule="evenodd" clip-rule="evenodd"/></clipPath><clipPath id="clip2"><path d="M3962.97 901.426 4089.11 936.33 4042.65 1104.2 3916.52 1069.3Z" fill-rule="evenodd" clip-rule="evenodd"/></clipPath><clipPath id="clip3"><path d="M3955.47 762.576 4192.98 828.302 4085.19 1217.85 3847.67 1152.12Z" fill-rule="evenodd" clip-rule="evenodd"/></clipPath></defs><g clip-path="url(#clip0)" transform="translate(-3889 -866)"><g clip-path="url(#clip1)"><g clip-path="url(#clip2)"><g clip-path="url(#clip3)"><path d="M100.118 134.651 113.724 147.302 132.831 128.726 144.786 116.804 158.425 128.839 204.682 82.5639C204.692 82.5539 204.708 82.5541 204.718 82.5641 204.723 82.569 204.726 82.5752 204.726 82.5818L204.726 104.567 209.86 104.567 209.86 73.7612 179.124 73.7612 179.124 78.8954 201.024 78.8954C201.038 78.8942 201.051 78.9047 201.052 78.9188 201.052 78.9263 201.05 78.9337 201.044 78.9391L158.199 121.787 144.56 109.752 129.242 125.07 113.662 140.216 99.9998 127.519 59.9064 167.615 63.5363 171.245Z" transform="matrix(0.963781 0.266697 -0.437398 1.58066 3955.47 762.576)"/><path d="M41.1818 205.37 41.1818 35.9397 36.0476 35.9397 36.0476 210.504 210.535 210.504 210.535 205.37 41.1818 205.37Z" transform="matrix(0.963781 0.266697 -0.437398 1.58066 3955.47 762.576)"/></g></g></g><rect x="3896" y="873" width="214" height="283" stroke="#172C51" stroke-width="13.75" stroke-miterlimit="8" fill="none"/><g><g><g><path d="M97.3751 45.125 73.6251 45.125 73.6251 30.875 97.3751 30.875 97.3751 45.125ZM97.3751 64.1251 73.6251 64.1251 73.6251 49.8751 97.3751 49.8751 97.3751 64.1251ZM97.3751 83.1251 73.6251 83.1251 73.6251 68.8751 97.3751 68.8751 97.3751 83.1251ZM45.125 83.1251 45.125 68.8751 68.8751 68.8751 68.8751 83.1251 45.125 83.1251ZM16.625 83.1251 16.625 68.8751 40.375 68.8751 40.375 83.1251 16.625 83.1251ZM16.625 49.8751 40.375 49.8751 40.375 64.1251 16.625 64.1251 16.625 49.8751ZM16.625 30.875 40.375 30.875 40.375 45.125 16.625 45.125 16.625 30.875ZM68.8751 49.8751 68.8751 64.1251 45.125 64.1251 45.125 49.8751 68.8751 49.8751ZM68.8751 30.875 68.8751 45.125 45.125 45.125 45.125 30.875 68.8751 30.875ZM9.50001 23.75 9.50001 90.2501 104.5 90.2501 104.5 23.75 9.50001 23.75Z" transform="matrix(1.27193 0 0 1 3930 1045)"/></g></g></g><path d="M3962.5 927.5 4052.44 927.5" stroke="#000000" stroke-width="20.625" stroke-miterlimit="8" fill="none" fill-rule="evenodd"/></g></svg>