<svg width="277" height="330" xmlns="http://www.w3.org/2000/svg" xmlns:xlink="http://www.w3.org/1999/xlink" xml:space="preserve" overflow="hidden"><defs><clipPath id="clip0"><rect x="3941" y="464" width="115" height="331"/></clipPath><clipPath id="clip1"><rect x="3941" y="464" width="115" height="331"/></clipPath></defs><g transform="translate(-3857 -464)"><g clip-path="url(#clip0)"><g clip-path="url(#clip1)"><path d="M130.625 233.75 199.375 233.75 199.375 281.875 130.625 281.875Z" transform="matrix(-1.83697e-16 -1 1.00364 -1.84366e-16 3827.11 794)"/><path d="M130.625 48.125 199.375 48.125 199.375 96.25 130.625 96.25Z" transform="matrix(-1.83697e-16 -1 1.00364 -1.84366e-16 3827.11 794)"/><path d="M27.5 233.75 96.25 233.75 96.25 281.875 27.5 281.875Z" transform="matrix(-1.83697e-16 -1 1.00364 -1.84366e-16 3827.11 794)"/><path d="M233.75 233.75 302.5 233.75 302.5 281.875 233.75 281.875Z" transform="matrix(-1.83697e-16 -1 1.00364 -1.84366e-16 3827.11 794)"/><path d="M171.875 158.125 171.875 110 158.125 110 158.125 158.125 55 158.125 55 220 68.75 220 68.75 171.875 158.125 171.875 158.125 220 171.875 220 171.875 171.875 261.25 171.875 261.25 220 275 220 275 158.125Z" transform="matrix(-1.83697e-16 -1 1.00364 -1.84366e-16 3827.11 794)"/></g></g><path d="M3859.5 627C3859.5 607.394 3876.07 591.5 3896.5 591.5 3916.93 591.5 3933.5 607.394 3933.5 627 3933.5 646.606 3916.93 662.5 3896.5 662.5 3876.07 662.5 3859.5 646.606 3859.5 627Z" stroke="#000000" stroke-width="4.58333" stroke-miterlimit="8" fill-rule="evenodd"/><path d="M4056.5 730C4056.5 710.394 4073.29 694.5 4094 694.5 4114.71 694.5 4131.5 710.394 4131.5 730 4131.5 749.606 4114.71 765.5 4094 765.5 4073.29 765.5 4056.5 749.606 4056.5 730Z" stroke="#000000" stroke-width="4.58333" stroke-miterlimit="8" fill-rule="evenodd"/><path d="M4056.5 629.5C4056.5 609.618 4073.29 593.5 4094 593.5 4114.71 593.5 4131.5 609.618 4131.5 629.5 4131.5 649.382 4114.71 665.5 4094 665.5 4073.29 665.5 4056.5 649.382 4056.5 629.5Z" stroke="#000000" stroke-width="4.58333" stroke-miterlimit="8" fill-rule="evenodd"/><path d="M4056.5 529C4056.5 509.394 4073.29 493.5 4094 493.5 4114.71 493.5 4131.5 509.394 4131.5 529 4131.5 548.606 4114.71 564.5 4094 564.5 4073.29 564.5 4056.5 548.606 4056.5 529Z" stroke="#000000" stroke-width="4.58333" stroke-miterlimit="8" fill-rule="evenodd"/></g></svg>