<svg width="61" height="76" xmlns="http://www.w3.org/2000/svg" xmlns:xlink="http://www.w3.org/1999/xlink" xml:space="preserve" overflow="hidden"><g transform="translate(-858 -67)"><path d="M6.9934 8.26042 10.8059 8.26042 10.8059 27.3229 6.9934 27.3229Z" transform="matrix(-2.28868e-16 -1.2459 1 -1.83697e-16 858 143)"/><path d="M23.5142 12.0729C24.2161 12.0729 24.7851 12.6419 24.7851 13.3438L24.7851 22.2396C24.7851 22.9415 24.2161 23.5104 23.5142 23.5104L19.7017 23.5104C18.9998 23.5104 18.4309 22.9415 18.4309 22.2396L18.4309 13.3438C18.4309 12.6419 18.9998 12.0729 19.7017 12.0729L23.5142 12.0729M23.5142 8.26042 19.7017 8.26042C16.8943 8.26042 14.6184 10.5363 14.6184 13.3438L14.6184 22.2396C14.6184 25.047 16.8943 27.3229 19.7017 27.3229L23.5142 27.3229C26.3217 27.3229 28.5976 25.047 28.5976 22.2396L28.5976 13.3438C28.5976 10.5363 26.3217 8.26042 23.5142 8.26042Z" transform="matrix(-2.28868e-16 -1.2459 1 -1.83697e-16 858 143)"/><path d="M32.4101 8.26042 36.2226 8.26042 36.2226 27.3229 32.4101 27.3229Z" transform="matrix(-2.28868e-16 -1.2459 1 -1.83697e-16 858 143)"/><path d="M48.9309 12.0729C49.6328 12.0729 50.2017 12.6419 50.2017 13.3438L50.2017 22.2396C50.2017 22.9415 49.6328 23.5104 48.9309 23.5104L45.1184 23.5104C44.4165 23.5104 43.8476 22.9415 43.8476 22.2396L43.8476 13.3438C43.8476 12.6419 44.4165 12.0729 45.1184 12.0729L48.9309 12.0729M48.9309 8.26042 45.1184 8.26042C42.3109 8.26042 40.0351 10.5363 40.0351 13.3438L40.0351 22.2396C40.0351 25.047 42.3109 27.3229 45.1184 27.3229L48.9309 27.3229C51.7384 27.3229 54.0142 25.047 54.0142 22.2396L54.0142 13.3438C54.0142 10.5363 51.7384 8.26042 48.9309 8.26042Z" transform="matrix(-2.28868e-16 -1.2459 1 -1.83697e-16 858 143)"/><path d="M6.9934 33.6771 10.8059 33.6771 10.8059 52.7396 6.9934 52.7396Z" transform="matrix(-2.28868e-16 -1.2459 1 -1.83697e-16 858 143)"/><path d="M23.5142 37.4896C24.2161 37.4896 24.7851 38.0585 24.7851 38.7604L24.7851 47.6562C24.7851 48.3581 24.2161 48.9271 23.5142 48.9271L19.7017 48.9271C18.9998 48.9271 18.4309 48.3581 18.4309 47.6562L18.4309 38.7604C18.4309 38.0585 18.9998 37.4896 19.7017 37.4896L23.5142 37.4896M23.5142 33.6771 19.7017 33.6771C16.8943 33.6771 14.6184 35.953 14.6184 38.7604L14.6184 47.6562C14.6184 50.4637 16.8943 52.7396 19.7017 52.7396L23.5142 52.7396C26.3217 52.7396 28.5976 50.4637 28.5976 47.6562L28.5976 38.7604C28.5976 35.953 26.3217 33.6771 23.5142 33.6771Z" transform="matrix(-2.28868e-16 -1.2459 1 -1.83697e-16 858 143)"/><path d="M32.4101 33.6771 36.2226 33.6771 36.2226 52.7396 32.4101 52.7396Z" transform="matrix(-2.28868e-16 -1.2459 1 -1.83697e-16 858 143)"/><path d="M48.9309 37.4896C49.6328 37.4896 50.2017 38.0585 50.2017 38.7604L50.2017 47.6562C50.2017 48.3581 49.6328 48.9271 48.9309 48.9271L45.1184 48.9271C44.4165 48.9271 43.8476 48.3581 43.8476 47.6562L43.8476 38.7604C43.8476 38.0585 44.4165 37.4896 45.1184 37.4896L48.9309 37.4896M48.9309 33.6771 45.1184 33.6771C42.3109 33.6771 40.0351 35.953 40.0351 38.7604L40.0351 47.6562C40.0351 50.4637 42.3109 52.7396 45.1184 52.7396L48.9309 52.7396C51.7384 52.7396 54.0142 50.4637 54.0142 47.6562L54.0142 38.7604C54.0142 35.953 51.7384 33.6771 48.9309 33.6771Z" transform="matrix(-2.28868e-16 -1.2459 1 -1.83697e-16 858 143)"/></g></svg>