<svg width="109" height="84" xmlns="http://www.w3.org/2000/svg" xmlns:xlink="http://www.w3.org/1999/xlink" xml:space="preserve" overflow="hidden"><g transform="translate(-923 -62)"><path d="M20.125 12.25 63.875 12.25 63.875 71.75 20.125 71.75 20.125 12.25ZM14.875 77 69.125 77 69.125 7 14.875 7 14.875 77Z" transform="matrix(1.29762 0 0 1 923 62)"/><path d="M26.25 17.5 33.25 17.5 33.25 24.5 26.25 24.5Z" transform="matrix(1.29762 0 0 1 923 62)"/><path d="M40.25 19.25 57.75 19.25 57.75 22.75 40.25 22.75Z" transform="matrix(1.29762 0 0 1 923 62)"/><path d="M26.25 31.5 33.25 31.5 33.25 38.5 26.25 38.5Z" transform="matrix(1.29762 0 0 1 923 62)"/><path d="M40.25 33.25 57.75 33.25 57.75 36.75 40.25 36.75Z" transform="matrix(1.29762 0 0 1 923 62)"/><path d="M26.25 45.5 33.25 45.5 33.25 52.5 26.25 52.5Z" transform="matrix(1.29762 0 0 1 923 62)"/><path d="M40.25 47.25 57.75 47.25 57.75 50.75 40.25 50.75Z" transform="matrix(1.29762 0 0 1 923 62)"/><path d="M26.25 59.5 33.25 59.5 33.25 66.5 26.25 66.5Z" transform="matrix(1.29762 0 0 1 923 62)"/><path d="M40.25 61.25 57.75 61.25 57.75 64.75 40.25 64.75Z" transform="matrix(1.29762 0 0 1 923 62)"/></g></svg>