<svg width="349" height="320" viewBox="0 0 349 320" fill="none" xmlns="http://www.w3.org/2000/svg">
<circle cx="174" cy="160" r="160" fill="url(#paint0_linear_2224_5357)" fill-opacity="0.62"/>
<path d="M331.553 96.8774L316.764 102.412C311.659 104.323 309.069 110.011 310.98 115.116L311.713 117.075C313.624 122.18 319.311 124.769 324.417 122.859L339.206 117.324C344.311 115.413 346.901 109.726 344.99 104.62L344.257 102.662C342.346 97.5564 336.659 94.9668 331.553 96.8774Z" fill="#025F7E"/>
<path d="M240.774 112.893L192 131.148C189.447 132.103 188.152 134.947 189.108 137.499L189.3 138.013C190.255 140.565 193.099 141.86 195.652 140.905L244.425 122.651C246.978 121.695 248.273 118.851 247.318 116.299L247.125 115.786C246.17 113.233 243.326 111.938 240.774 112.893Z" fill="#00335A"/>
<path d="M254.386 149.264L205.612 167.518C203.06 168.474 201.765 171.318 202.72 173.87L202.912 174.384C203.868 176.936 206.711 178.231 209.264 177.276L258.038 159.021C260.591 158.066 261.885 155.222 260.93 152.67L260.738 152.156C259.783 149.604 256.939 148.309 254.386 149.264Z" fill="#00335A"/>
<path d="M299.417 88.0726L259.886 102.867C254.781 104.778 252.192 110.465 254.102 115.571L267.599 151.632C269.509 156.737 275.197 159.327 280.302 157.416L319.832 142.621C324.938 140.711 327.527 135.023 325.616 129.918L312.12 93.8568C310.209 88.7516 304.522 86.1619 299.417 88.0726Z" fill="#00457B"/>
<path d="M263.97 97.533L224.44 112.328C219.335 114.238 216.745 119.926 218.656 125.031L234.758 168.053C236.668 173.159 242.356 175.748 247.461 173.838L286.991 159.043C292.096 157.132 294.686 151.445 292.775 146.339L276.674 103.317C274.763 98.212 269.076 95.6224 263.97 97.533Z" fill="#5292C4"/>
<path d="M270.159 88.802L269.849 88.918C266.446 90.1918 264.719 93.9834 265.993 97.3869L288.55 157.656C289.823 161.06 293.615 162.786 297.019 161.513L297.329 161.397C300.732 160.123 302.458 156.331 301.185 152.928L278.628 92.6581C277.354 89.2546 273.563 87.5282 270.159 88.802Z" fill="#025F7E"/>
<path d="M24.033 199.279L9.2438 204.814C4.13859 206.725 1.54892 212.412 3.45961 217.517L4.19271 219.476C6.1034 224.581 11.7909 227.171 16.8961 225.26L31.6853 219.725C36.7905 217.815 39.3802 212.127 37.4695 207.022L36.7364 205.063C34.8257 199.958 29.1382 197.368 24.033 199.279Z" fill="#025F7E"/>
<path d="M49.0195 174.946L27.1012 183.15C21.996 185.06 19.4063 190.748 21.317 195.853L31.8859 224.092C33.7966 229.197 39.4841 231.787 44.5893 229.876L66.5076 221.673C71.6128 219.763 74.2025 214.075 72.2918 208.97L61.7229 180.73C59.8122 175.625 54.1247 173.036 49.0195 174.946Z" fill="#00457B"/>
<path d="M85.5093 153.205L52.8229 165.438C47.7177 167.349 45.128 173.036 47.0387 178.141L63.1403 221.164C65.051 226.269 70.7385 228.858 75.8437 226.948L108.53 214.714C113.635 212.804 116.225 207.116 114.314 202.011L98.2127 158.989C96.302 153.883 90.6145 151.294 85.5093 153.205Z" fill="#5292C4"/>
<path d="M92.4325 144.295L92.1225 144.411C88.719 145.685 86.9926 149.476 88.2664 152.88L110.823 213.149C112.097 216.553 115.888 218.279 119.292 217.005L119.602 216.889C123.005 215.616 124.732 211.824 123.458 208.42L100.901 148.151C99.6276 144.748 95.836 143.021 92.4325 144.295Z" fill="#025F7E"/>
<path d="M175.899 105.898C174.722 105.768 173.641 105.185 172.885 104.274C172.128 103.363 171.755 102.194 171.843 101.013L174.282 56.4661C174.427 53.8051 176.674 51.7834 179.224 52.0186L182.777 52.3476C185.327 52.5829 187.153 54.9796 186.796 57.6218L180.803 101.839C180.666 103.017 180.079 104.097 179.165 104.853C178.252 105.609 177.082 105.983 175.899 105.898Z" fill="#BEC0C7"/>
<path d="M154.84 109.739C154.474 109.847 154.09 109.881 153.711 109.84C153.331 109.8 152.964 109.685 152.629 109.502C152.294 109.319 151.998 109.072 151.759 108.775C151.519 108.478 151.341 108.136 151.233 107.77L142.524 80.0598C142.271 79.2718 142.34 78.4154 142.718 77.6786C143.095 76.9419 143.749 76.3849 144.537 76.1299L146.792 75.4495C147.179 75.3366 147.585 75.3051 147.984 75.3571C148.384 75.409 148.769 75.5433 149.114 75.7513C149.459 75.9594 149.757 76.2367 149.99 76.5659C150.222 76.8951 150.384 77.2689 150.465 77.6637L156.92 106.055C157.1 106.818 156.986 107.621 156.6 108.304C156.215 108.986 155.586 109.499 154.84 109.739Z" fill="#BEC0C7"/>
<path d="M143.087 125.719C141.527 127.653 138.389 127.63 135.973 125.667L93.0811 90.8185C90.5192 88.7369 89.7631 85.2913 91.4187 83.2416L93.7259 80.3833C95.3815 78.3326 98.7817 78.5007 101.206 80.7531L141.791 118.46C144.076 120.583 144.648 123.786 143.087 125.719Z" fill="#BEC0C7"/>
<path d="M162.914 215.728C164.018 216.155 164.914 216.994 165.413 218.068C165.912 219.143 165.974 220.369 165.587 221.488L151.853 263.933C151.032 266.469 148.343 267.848 145.938 266.971L142.585 265.746C140.18 264.867 139.025 262.082 140.046 259.62L157.133 218.4C157.567 217.296 158.41 216.401 159.487 215.904C160.564 215.406 161.791 215.343 162.914 215.728Z" fill="#BEC0C7"/>
<path d="M184.255 217.393C184.636 217.383 185.016 217.447 185.372 217.584C185.729 217.72 186.055 217.925 186.332 218.187C186.609 218.45 186.832 218.764 186.988 219.112C187.143 219.461 187.229 219.837 187.239 220.218L188.583 249.234C188.626 250.061 188.34 250.871 187.787 251.487C187.234 252.103 186.46 252.474 185.633 252.52L183.279 252.602C182.876 252.612 182.475 252.539 182.102 252.386C181.729 252.234 181.391 252.006 181.111 251.717C180.83 251.427 180.613 251.083 180.472 250.705C180.331 250.328 180.27 249.925 180.293 249.522L181.304 220.425C181.325 219.641 181.64 218.894 182.187 218.332C182.734 217.77 183.472 217.435 184.255 217.393Z" fill="#BEC0C7"/>
<path d="M199.699 204.945C201.702 203.474 204.73 204.298 206.564 206.812L239.134 251.458C241.079 254.125 240.93 257.648 238.805 259.208L235.844 261.382C233.72 262.942 230.475 261.911 228.706 259.114L199.096 212.293C197.431 209.657 197.696 206.415 199.699 204.945Z" fill="#BEC0C7"/>
<defs>
<linearGradient id="paint0_linear_2224_5357" x1="174" y1="0" x2="174" y2="320" gradientUnits="userSpaceOnUse">
<stop stop-color="#DBE6EF"/>
<stop offset="1" stop-color="#F9FCFF"/>
</linearGradient>
</defs>
</svg>
