<svg width="292" height="330" xmlns="http://www.w3.org/2000/svg" xmlns:xlink="http://www.w3.org/1999/xlink" xml:space="preserve" overflow="hidden"><defs><clipPath id="clip0"><rect x="2315" y="1189" width="248" height="331"/></clipPath><clipPath id="clip1"><rect x="2315" y="1189" width="248" height="331"/></clipPath></defs><g transform="translate(-2316 -1189)"><g clip-path="url(#clip0)"><g clip-path="url(#clip1)"><path d="M261.154 254.282C261.154 258.062 258.062 261.154 254.282 261.154 250.502 261.154 247.409 258.062 247.409 254.282L247.409 89.3422 261.154 89.3422 261.154 254.282ZM75.5973 261.154C71.8174 261.154 68.7248 258.062 68.7248 254.282L68.7248 68.7248 226.792 68.7248 226.792 254.282C226.792 256.687 227.135 259.092 227.823 261.154L75.5973 261.154ZM247.409 68.7248 247.409 48.1073 48.1073 48.1073 48.1073 254.282C48.1073 269.401 60.4778 281.772 75.5973 281.772L254.282 281.772C269.401 281.772 281.772 269.401 281.772 254.282L281.772 68.7248 247.409 68.7248Z" transform="matrix(1 0 0 1.00037 2316 1189)"/><path d="M82.4697 89.3422 213.047 89.3422 213.047 103.087 82.4697 103.087Z" transform="matrix(1 0 0 1.00037 2316 1189)"/><path d="M154.631 116.832 213.047 116.832 213.047 130.577 154.631 130.577Z" transform="matrix(1 0 0 1.00037 2316 1189)"/><path d="M154.631 144.322 213.047 144.322 213.047 158.067 154.631 158.067Z" transform="matrix(1 0 0 1.00037 2316 1189)"/><path d="M82.4697 116.832 140.886 116.832 140.886 158.067 82.4697 158.067Z" transform="matrix(1 0 0 1.00037 2316 1189)"/><path d="M82.4697 171.812 213.047 171.812 213.047 185.557 82.4697 185.557Z" transform="matrix(1 0 0 1.00037 2316 1189)"/><path d="M154.631 199.302 213.047 199.302 213.047 240.537 154.631 240.537Z" transform="matrix(1 0 0 1.00037 2316 1189)"/><path d="M82.4697 199.302 140.886 199.302 140.886 213.047 82.4697 213.047Z" transform="matrix(1 0 0 1.00037 2316 1189)"/><path d="M82.4697 226.792 140.886 226.792 140.886 240.537 82.4697 240.537Z" transform="matrix(1 0 0 1.00037 2316 1189)"/></g></g><rect x="2563.5" y="1238.5" width="42.0002" height="231" stroke="#FFFFFF" stroke-width="4.58333" stroke-miterlimit="8" fill="#FFFFFF"/></g></svg>