<svg width="138" height="137" viewBox="0 0 138 137" fill="none" xmlns="http://www.w3.org/2000/svg">
<g id="Group 31311">
<path id="Vector" d="M38 56.0318C38 53.2493 40.2624 51 43.0611 51C45.8599 51 48.1223 53.2493 48.1223 56.0318C48.1223 58.8143 45.8599 61.0636 43.0611 61.0636C40.2624 61.0636 38 58.8143 38 56.0318Z" fill="#838B95"/>
<path id="Vector_2" d="M89.625 56.0318C89.625 53.2493 91.8874 51 94.6861 51C97.4849 51 99.7473 53.2493 99.7473 56.0318C99.7473 58.8143 97.4849 61.0636 94.6861 61.0636C91.8874 61.0636 89.625 58.8143 89.625 56.0318Z" fill="#838B95"/>
<path id="Vector_3" d="M39.3066 84.8264H98.4409" stroke="#848A93" stroke-width="4.25" stroke-linecap="round" stroke-linejoin="round"/>
<g id="Group 31308">
<g id="Group">
<path id="Vector_4" d="M124.636 81.5763C131.902 50.9703 112.836 20.3032 82.052 13.0796C51.2675 5.85587 20.4217 24.811 13.1559 55.4171C5.89009 86.0231 24.9557 116.69 55.7402 123.914C86.5247 131.138 117.371 112.182 124.636 81.5763Z" stroke="#838B95" stroke-width="4.25" stroke-linecap="round" stroke-linejoin="round"/>
</g>
</g>
</g>
</svg>
