<svg width="138" height="137" viewBox="0 0 138 137" fill="none" xmlns="http://www.w3.org/2000/svg">
<path d="M124.636 81.5763C131.902 50.9703 112.836 20.3032 82.052 13.0796C51.2675 5.85587 20.4217 24.811 13.1559 55.4171C5.89009 86.0231 24.9557 116.69 55.7402 123.914C86.5247 131.138 117.371 112.182 124.636 81.5763Z" fill="#4CBEB9" stroke="#008F8A" stroke-width="4.25" stroke-linecap="round" stroke-linejoin="round"/>
<path d="M38 52.0318C38 49.259 40.2624 47 43.0611 47C45.8599 47 48.1223 49.2493 48.1223 52.0318C48.1223 54.8143 45.8599 57.0636 43.0611 57.0636C40.2624 57.0636 38 54.8143 38 52.0318Z" fill="white" stroke="white" stroke-miterlimit="10"/>
<path d="M89.6255 52.0318C89.6255 49.259 91.8879 47 94.6866 47C97.4854 47 99.7478 49.2493 99.7478 52.0318C99.7478 54.8143 97.4854 57.0636 94.6866 57.0636C91.8879 57.0636 89.6255 54.8143 89.6255 52.0318Z" fill="white" stroke="white" stroke-miterlimit="10"/>
<path d="M41.1304 88.5828C45.7722 77.9278 56.4503 70.4722 68.874 70.4722C81.2976 70.4722 91.966 77.9181 96.6078 88.5731" stroke="white" stroke-width="4.25" stroke-linecap="round" stroke-linejoin="round"/>
</svg>
