<svg width="138" height="137" viewBox="0 0 138 137" fill="none" xmlns="http://www.w3.org/2000/svg">
<g id="Group 31312">
<g id="Group 31308">
<g id="Group">
<path id="Vector" d="M124.636 81.5763C131.902 50.9703 112.836 20.3032 82.052 13.0796C51.2675 5.85587 20.4217 24.811 13.1559 55.4171C5.89009 86.0231 24.9557 116.69 55.7402 123.914C86.5247 131.138 117.371 112.182 124.636 81.5763Z" stroke="#85C0D1" stroke-width="4.25" stroke-linecap="round" stroke-linejoin="round"/>
<g id="Group 31314">
<path id="Vector_2" d="M49.0031 50.2906C47.1016 49.2823 44.7319 49.9998 43.7177 51.9C43.4349 52.4333 43.3569 52.8017 43.3276 53.3834C43.2984 52.8017 43.2204 52.4333 42.9376 51.9C41.9234 50.0095 39.5635 49.2823 37.6522 50.2906C36.5113 50.8917 35.7311 52.0455 35.5946 53.3252C35.341 55.8072 37.8375 57.339 39.4952 58.7642C40.763 59.8501 42.0307 60.9262 43.3374 61.983C44.4784 61.0426 45.6095 60.0828 46.7407 59.1229C47.5599 58.4249 48.379 57.7171 49.1787 56.99C50.2611 56.0108 51.1388 55.1188 51.0705 53.5579C51.012 52.1909 50.2124 50.9305 49.0031 50.2906Z" fill="#85C0D1"/>
<path id="Vector_3" d="M89.4339 50.2906C91.3355 49.2823 93.7051 49.9998 94.7193 51.9C95.0021 52.4333 95.0801 52.8017 95.1094 53.3834C95.1386 52.8017 95.2166 52.4333 95.4994 51.9C96.5136 50.0095 98.8735 49.2823 100.785 50.2906C101.926 50.8917 102.706 52.0455 102.842 53.3252C103.096 55.8072 100.6 57.339 98.9418 58.7642C97.6741 59.8501 96.4063 60.9262 95.0996 61.983C93.9587 61.0426 92.8275 60.0828 91.6963 59.1229C90.8771 58.4249 90.058 57.7171 89.2584 56.99C88.1759 56.0108 87.2983 55.1188 87.3665 53.5579C87.425 52.1909 88.2247 50.9305 89.4339 50.2906Z" fill="#85C0D1"/>
<path id="Vector_4" d="M100.005 76.9717C95.9189 90.0214 83.6805 99.4936 69.209 99.4936C54.7374 99.4936 42.499 90.0214 38.4131 76.9717" stroke="#85C0D1" stroke-width="4.25" stroke-linecap="round" stroke-linejoin="round"/>
<path id="Vector_5" d="M40.8705 75.5659L35 78.3678" stroke="#85C0D1" stroke-width="4.25" stroke-linecap="round" stroke-linejoin="round"/>
<path id="Vector_6" d="M97.5669 75.5659L103.437 78.3678" stroke="#85C0D1" stroke-width="4.25" stroke-linecap="round" stroke-linejoin="round"/>
</g>
</g>
</g>
</g>
</svg>
