<svg width="138" height="137" viewBox="0 0 138 137" fill="none" xmlns="http://www.w3.org/2000/svg">
<path d="M124.636 81.5763C131.902 50.9703 112.836 20.3032 82.052 13.0796C51.2675 5.85587 20.4217 24.811 13.1559 55.4171C5.89009 86.0231 24.9557 116.69 55.7402 123.914C86.5247 131.138 117.371 112.182 124.636 81.5763Z" fill="#6B9ABE" stroke="#00607E" stroke-width="4.25" stroke-linecap="round" stroke-linejoin="round"/>
<path d="M38.0196 58.8524C38.0196 56.0698 40.282 53.8206 43.0807 53.8206C45.8795 53.8206 48.1419 56.0698 48.1419 58.8524C48.1419 61.6349 45.8795 63.8842 43.0807 63.8842C40.282 63.8842 38.0196 61.6349 38.0196 58.8524Z" fill="white" stroke="#6B9ABE" stroke-miterlimit="10"/>
<path d="M89.6451 58.8524C89.6451 56.0698 91.9075 53.8206 94.7062 53.8206C97.5049 53.8206 99.7673 56.0698 99.7673 58.8524C99.7673 61.6349 97.5049 63.8842 94.7062 63.8842C91.9075 63.8842 89.6451 61.6349 89.6451 58.8524Z" fill="white" stroke="#6B9ABE" stroke-miterlimit="10"/>
<path d="M41.1499 95.4033C45.7917 84.7483 56.4698 77.2927 68.8935 77.2927C81.3171 77.2927 91.9855 84.7386 96.6273 95.3936" stroke="white" stroke-width="4.25" stroke-linecap="round" stroke-linejoin="round"/>
<path d="M38.7997 41.6047L52.0425 49.5839" stroke="white" stroke-width="4.25" stroke-linecap="round" stroke-linejoin="round"/>
<path d="M98.9872 41.6047L85.7346 49.5839" stroke="white" stroke-width="4.25" stroke-linecap="round" stroke-linejoin="round"/>
</svg>
